<?xml version="1.0" encoding="utf-8"?>
<!-- Generator: Adobe Illustrator 15.0.0, SVG Export Plug-In . SVG Version: 6.00 Build 0)  -->
<!DOCTYPE svg PUBLIC "-//W3C//DTD SVG 1.0//EN" "http://www.w3.org/TR/2001/REC-SVG-20010904/DTD/svg10.dtd">
<svg version="1.0" id="Calque_1" xmlns="http://www.w3.org/2000/svg" xmlns:xlink="http://www.w3.org/1999/xlink" x="0px" y="0px"
	 width="100%" viewBox="0 0 54 64" enable-background="new 0 0 54 64" xml:space="preserve">
<g>
	<circle fill="none" cx="29" cy="37" r="1"/>
	<path fill="none" d="M27,21c-4.97,0-9,5.37-9,12s4.03,12,9,12c4.97,0,9-5.37,9-12S31.97,21,27,21z M29,26c0.55,0,1,0.45,1,1
		s-0.45,1-1,1s-1-0.45-1-1S28.45,26,29,26z M23,33c-1.1,0-2-0.89-2-2s0.9-2,2-2s2,0.89,2,2S24.1,33,23,33z M29,40
		c-1.66,0-3-1.34-3-3s1.34-3,3-3s3,1.34,3,3S30.66,40,29,40z"/>
	<path fill="none" d="M48.43,10.53L48.43,10.53l-0.09-0.05c0,0-0.01,0-0.01,0L30.44,2.52l0,0.01C29.69,2.19,28.87,2,28,2
		c-0.79,0-1.54,0.16-2.23,0.44l0-0.01l-0.1,0.04c0,0-0.01,0-0.01,0L5.77,10.43l0,0.01C3.56,11.32,2,13.47,2,16v32
		c0,2.53,1.56,4.68,3.77,5.56l0,0.01l19.89,7.96c0,0,0.01,0,0.01,0l0.1,0.04l0-0.01C26.46,61.84,27.21,62,28,62
		c0.87,0,1.69-0.19,2.43-0.53l0,0.01l17.89-7.95c0,0,0.01,0,0.01,0l0.1-0.04l0-0.01C50.53,52.54,52,50.45,52,48V16
		C52,13.55,50.53,11.46,48.43,10.53z M42,34h-4.04c-0.07,1.33-0.29,2.6-0.64,3.8l3.17,1.83c0.48,0.28,0.64,0.89,0.37,1.37
		c-0.28,0.48-0.89,0.64-1.37,0.37l-2.84-1.64C34.78,44.06,31.16,47,27,47s-7.78-2.94-9.65-7.28l-2.84,1.64
		c-0.48,0.28-1.09,0.11-1.37-0.37c-0.28-0.48-0.11-1.09,0.37-1.37l3.17-1.83c-0.35-1.2-0.57-2.47-0.64-3.8H12c-0.55,0-1-0.45-1-1
		s0.45-1,1-1h4.04c0.07-1.33,0.29-2.6,0.64-3.8l-3.17-1.83c-0.48-0.28-0.64-0.89-0.37-1.37c0.28-0.48,0.89-0.64,1.37-0.37l2.84,1.64
		c0.99-2.3,2.48-4.2,4.28-5.49c-0.62-1.49-2.12-3.77-5.55-3.8C16.06,16.99,16.03,17,16,17c-0.55,0-1-0.45-1-1s0.45-1,1-1h0v-0.02
		c4,0,6.37,2.56,7.39,4.81C24.52,19.29,25.73,19,27,19c1.26,0,2.48,0.28,3.6,0.78c1.02-2.25,3.4-4.79,7.4-4.79v0.02
		c0,0,0-0.01,0.02-0.01c0.55,0,0.99,0.45,0.99,1s-0.45,1-1,1c-0.03,0-0.06-0.02-0.09-0.02c-3.43,0.03-4.94,2.29-5.56,3.79
		c1.81,1.28,3.3,3.19,4.3,5.51l2.84-1.64c0.48-0.28,1.09-0.11,1.37,0.37c0.28,0.48,0.11,1.09-0.37,1.37l-3.17,1.83
		c0.35,1.2,0.57,2.47,0.64,3.8H42c0.55,0,1,0.45,1,1S42.55,34,42,34z"/>
	<path fill="#33FF33" d="M49,8.69L49,8.69l0.01-0.06c-0.01,0-0.08-0.01-0.09-0.01L31,0.69v0C30,0.25,29.02,0,27.86,0
		C26.81,0,26,0.21,25,0.58v0l-0.11,0.05c-0.01,0-0.03,0.01-0.04,0.01L5,8.57v0C2,9.76,0,12.63,0,16v32c0,3.37,2,6.24,5,7.42v0
		l19.86,7.94c0.01,0,0.01,0.01,0.02,0.01L25,63.43v0c1,0.37,1.81,0.58,2.86,0.58c1.16,0,2.14-0.25,3.14-0.69v0l17.98-7.93
		c0.01,0-0.04-0.01-0.03-0.01L49,55.31v0c3-1.25,5-4.05,5-7.31V16C54,12.74,52,9.94,49,8.69z M52,48c0,2.45-1.47,4.54-3.57,5.47
		l0,0.01l-0.1,0.04c0,0-0.01,0-0.01,0l-17.89,7.95l0-0.01C29.69,61.81,28.87,62,28,62c-0.79,0-1.54-0.16-2.23-0.44l0,0.01l-0.1-0.04
		c0,0-0.01,0-0.01,0L5.77,53.57l0-0.01C3.56,52.68,2,50.53,2,48V16c0-2.53,1.56-4.68,3.77-5.56l0-0.01l19.89-7.96c0,0,0.01,0,0.01,0
		l0.1-0.04l0,0.01C26.46,2.16,27.21,2,28,2c0.87,0,1.69,0.19,2.43,0.53l0-0.01l17.89,7.95c0,0,0.01,0,0.01,0l0.1,0.04l0,0.01
		C50.53,11.46,52,13.55,52,16V48z"/>
	<circle fill="#33FF33" cx="29" cy="27" r="1"/>
	<circle fill="#33FF33" cx="23" cy="31" r="2"/>
	<path fill="#33FF33" d="M42,32h-4.04c-0.07-1.33-0.29-2.6-0.64-3.8l3.17-1.83c0.48-0.28,0.64-0.89,0.37-1.37
		c-0.28-0.48-0.89-0.64-1.37-0.37l-2.84,1.64c-1-2.31-2.49-4.22-4.3-5.51c0.62-1.49,2.13-3.76,5.56-3.79c0.03,0,0.06,0.02,0.09,0.02
		c0.55,0,1-0.45,1-1s-0.43-1-0.98-1C38,15,38,15.01,38,15.01v-0.02c-4,0-6.38,2.55-7.4,4.79c-1.13-0.5-2.34-0.78-3.6-0.78
		c-1.27,0-2.49,0.29-3.62,0.79C22.38,17.54,20,14.98,16,14.98V15h0c-0.55,0-1,0.45-1,1s0.45,1,1,1c0.03,0,0.06-0.01,0.08-0.02
		c3.42,0.04,4.93,2.31,5.55,3.8c-1.8,1.28-3.29,3.19-4.28,5.49l-2.84-1.64c-0.48-0.28-1.09-0.11-1.37,0.37
		c-0.28,0.48-0.11,1.09,0.37,1.37l3.17,1.83c-0.35,1.2-0.57,2.47-0.64,3.8H12c-0.55,0-1,0.45-1,1s0.45,1,1,1h4.04
		c0.07,1.33,0.29,2.6,0.64,3.8l-3.17,1.83c-0.48,0.28-0.64,0.89-0.37,1.37c0.28,0.48,0.89,0.64,1.37,0.37l2.84-1.64
		C19.22,44.06,22.84,47,27,47s7.78-2.94,9.65-7.28l2.84,1.64c0.48,0.28,1.09,0.11,1.37-0.37c0.28-0.48,0.11-1.09-0.37-1.37
		l-3.17-1.83c0.35-1.2,0.57-2.47,0.64-3.8H42c0.55,0,1-0.45,1-1S42.55,32,42,32z M27,45c-4.97,0-9-5.37-9-12s4.03-12,9-12
		c4.97,0,9,5.37,9,12S31.97,45,27,45z"/>
	<path fill="#33FF33" d="M29,34c-1.66,0-3,1.34-3,3s1.34,3,3,3s3-1.34,3-3S30.66,34,29,34z M29,38c-0.55,0-1-0.45-1-1s0.45-1,1-1
		s1,0.45,1,1S29.55,38,29,38z"/>
</g>
</svg>
